<svg
    xmlns="http://www.w3.org/2000/svg"
    xmlns:xlink="http://www.w3.org/1999/xlink"
    viewBox="0 0 40 40"
    version="1.1"
    style="height: 24px; width: 24px;"
>
    <g transform="translate(2, 2)">
        <path
            style="fill: none; fill-rule: none; opacity: 1; stroke: black; stroke-width: 0.5; stroke-linecap: round; stroke-linejoin: round; stroke-miterlimit: 10; stroke-dasharray: none; stroke-opacity: 1;"
            d="M18,36 C27.9411255,36 36,27.9411255 36,18 C36,8.0588745 27.9411255,0 18,0 C8.0588745,0 0,8.0588745 0,18 C0,27.9411255 8.0588745,36 18,36 Z M25.3353315,9 C23.6706634,9.00000028 20.8962156,9 18.6766577,9 C16.8177237,9 14.5764904,11.7091127 13.4488292,13.5150973 C13.0914338,14.0874772 11.6257738,15.786073 10.6827674,17.9948188 C10.5835785,18.2271428 8.75678879,17.9883781 7,16.5074218 C7.8353146,18.4444447 10.0861664,19.2821104 10.0861664,19.2821104 C10.0861664,19.2821104 9.6439215,20.9575525 9.79842583,22.7304793 C9.93351524,24.2806222 10.6275488,25.8807664 11.3940041,26.5173175 C15.2140174,29.6898894 19.5182035,26.0535344 19.5182035,26.0535344 L18.6766573,25.4051069 C18.6766573,25.4051069 18.0436629,26.1460446 16.0124838,26.0535344 C14.9907206,26.0069981 14.0457193,25.8108428 13.4488294,25.13522 C12.8615605,24.4704873 12.6136546,23.3303583 12.6725135,22.7757992 C13.0955767,18.7897647 17.1463858,19.2821102 17.4208609,19.2821102 C17.9209335,19.2821102 16.458759,21.2580634 16.458759,21.2580634 C16.458759,21.2580634 18.5184091,22.1493927 19.7713717,22.1493927 C19.980503,22.1493927 20.5549781,22.5669967 20.6330845,22.7757986 C21.1603111,24.1852362 21.6875379,25.5946737 22.2147647,27.0041113 C22.2927477,27.2125836 22.9195966,27.6075027 23.5365759,27.5618242 C23.9254304,27.5330352 25.957341,27.2899713 26.2307949,27.180408 C26.9999996,26.8722148 27,25.9612122 27,25.9612122 L26.9999996,10.668316 C26.9999996,10.668316 26.9999996,9 25.3353315,9 Z M18.5384615,15.2962963 C18.963296,15.2962963 19.3076923,14.9439278 19.3076923,14.5092593 C19.3076923,14.0745907 18.963296,13.7222222 18.5384615,13.7222222 C18.1136271,13.7222222 17.7692308,14.0745907 17.7692308,14.5092593 C17.7692308,14.9439278 18.1136271,15.2962963 18.5384615,15.2962963 Z"
        />
        <path
            style="fill: #000000; fill-rule: evenodd; opacity: 1; stroke: black; stroke-width: 0.5; stroke-linecap: round; stroke-linejoin: round; stroke-miterlimit: 10; stroke-dasharray: none; stroke-opacity: 1;"
            d="M18,36 C27.9411255,36 36,27.9411255 36,18 C36,8.0588745 27.9411255,0 18,0 C8.0588745,0 0,8.0588745 0,18 C0,27.9411255 8.0588745,36 18,36 Z M25.3353315,9 C23.6706634,9.00000028 20.8962156,9 18.6766577,9 C16.8177237,9 14.5764904,11.7091127 13.4488292,13.5150973 C13.0914338,14.0874772 11.6257738,15.786073 10.6827674,17.9948188 C10.5835785,18.2271428 8.75678879,17.9883781 7,16.5074218 C7.8353146,18.4444447 10.0861664,19.2821104 10.0861664,19.2821104 C10.0861664,19.2821104 9.6439215,20.9575525 9.79842583,22.7304793 C9.93351524,24.2806222 10.6275488,25.8807664 11.3940041,26.5173175 C15.2140174,29.6898894 19.5182035,26.0535344 19.5182035,26.0535344 L18.6766573,25.4051069 C18.6766573,25.4051069 18.0436629,26.1460446 16.0124838,26.0535344 C14.9907206,26.0069981 14.0457193,25.8108428 13.4488294,25.13522 C12.8615605,24.4704873 12.6136546,23.3303583 12.6725135,22.7757992 C13.0955767,18.7897647 17.1463858,19.2821102 17.4208609,19.2821102 C17.9209335,19.2821102 16.458759,21.2580634 16.458759,21.2580634 C16.458759,21.2580634 18.5184091,22.1493927 19.7713717,22.1493927 C19.980503,22.1493927 20.5549781,22.5669967 20.6330845,22.7757986 C21.1603111,24.1852362 21.6875379,25.5946737 22.2147647,27.0041113 C22.2927477,27.2125836 22.9195966,27.6075027 23.5365759,27.5618242 C23.9254304,27.5330352 25.957341,27.2899713 26.2307949,27.180408 C26.9999996,26.8722148 27,25.9612122 27,25.9612122 L26.9999996,10.668316 C26.9999996,10.668316 26.9999996,9 25.3353315,9 Z M18.5384615,15.2962963 C18.963296,15.2962963 19.3076923,14.9439278 19.3076923,14.5092593 C19.3076923,14.0745907 18.963296,13.7222222 18.5384615,13.7222222 C18.1136271,13.7222222 17.7692308,14.0745907 17.7692308,14.5092593 C17.7692308,14.9439278 18.1136271,15.2962963 18.5384615,15.2962963 Z"
        />
    </g>
</svg>